<svg xmlns="http://www.w3.org/2000/svg" version="1.1" xmlns:xlink="http://www.w3.org/1999/xlink" xmlns:svgjs="http://svgjs.dev/svgjs" width="1440" height="560" preserveAspectRatio="none" viewBox="0 0 1440 560"><g mask="url(&quot;#SvgjsMask1075&quot;)" fill="none"><rect width="1440" height="560" x="0" y="0" fill="rgba(0, 0, 0, 1)"></rect><path d="M498 428L497 149" stroke-width="6" stroke="url(&quot;#SvgjsLinearGradient1076&quot;)" stroke-linecap="round" class="Up"></path><path d="M1283 278L1282 -96" stroke-width="8" stroke="url(&quot;#SvgjsLinearGradient1077&quot;)" stroke-linecap="round" class="Down"></path><path d="M1057 149L1056 291" stroke-width="6" stroke="url(&quot;#SvgjsLinearGradient1076&quot;)" stroke-linecap="round" class="Up"></path><path d="M1400 486L1399 214" stroke-width="8" stroke="url(&quot;#SvgjsLinearGradient1076&quot;)" stroke-linecap="round" class="Up"></path><path d="M49 89L48 350" stroke-width="6" stroke="url(&quot;#SvgjsLinearGradient1076&quot;)" stroke-linecap="round" class="Up"></path><path d="M680 137L679 453" stroke-width="8" stroke="url(&quot;#SvgjsLinearGradient1076&quot;)" stroke-linecap="round" class="Up"></path><path d="M611 450L610 272" stroke-width="8" stroke="url(&quot;#SvgjsLinearGradient1076&quot;)" stroke-linecap="round" class="Up"></path><path d="M778 2L777 -272" stroke-width="10" stroke="url(&quot;#SvgjsLinearGradient1076&quot;)" stroke-linecap="round" class="Up"></path><path d="M697 59L696 419" stroke-width="8" stroke="url(&quot;#SvgjsLinearGradient1076&quot;)" stroke-linecap="round" class="Up"></path><path d="M388 23L387 339" stroke-width="8" stroke="url(&quot;#SvgjsLinearGradient1076&quot;)" stroke-linecap="round" class="Up"></path><path d="M658 352L657 681" stroke-width="8" stroke="url(&quot;#SvgjsLinearGradient1077&quot;)" stroke-linecap="round" class="Down"></path><path d="M336 180L335 -28" stroke-width="6" stroke="url(&quot;#SvgjsLinearGradient1076&quot;)" stroke-linecap="round" class="Up"></path><path d="M619 539L618 745" stroke-width="10" stroke="url(&quot;#SvgjsLinearGradient1076&quot;)" stroke-linecap="round" class="Up"></path><path d="M749 193L748 547" stroke-width="10" stroke="url(&quot;#SvgjsLinearGradient1077&quot;)" stroke-linecap="round" class="Down"></path><path d="M178 391L177 768" stroke-width="10" stroke="url(&quot;#SvgjsLinearGradient1077&quot;)" stroke-linecap="round" class="Down"></path><path d="M922 553L921 794" stroke-width="8" stroke="url(&quot;#SvgjsLinearGradient1077&quot;)" stroke-linecap="round" class="Down"></path><path d="M775 426L774 61" stroke-width="6" stroke="url(&quot;#SvgjsLinearGradient1077&quot;)" stroke-linecap="round" class="Down"></path><path d="M222 455L221 53" stroke-width="8" stroke="url(&quot;#SvgjsLinearGradient1077&quot;)" stroke-linecap="round" class="Down"></path><path d="M36 155L35 312" stroke-width="10" stroke="url(&quot;#SvgjsLinearGradient1076&quot;)" stroke-linecap="round" class="Up"></path><path d="M187 210L186 427" stroke-width="10" stroke="url(&quot;#SvgjsLinearGradient1076&quot;)" stroke-linecap="round" class="Up"></path><path d="M57 394L56 242" stroke-width="8" stroke="url(&quot;#SvgjsLinearGradient1076&quot;)" stroke-linecap="round" class="Up"></path><path d="M786 364L785 562" stroke-width="6" stroke="url(&quot;#SvgjsLinearGradient1076&quot;)" stroke-linecap="round" class="Up"></path><path d="M960 510L959 209" stroke-width="10" stroke="url(&quot;#SvgjsLinearGradient1076&quot;)" stroke-linecap="round" class="Up"></path><path d="M1276 32L1275 366" stroke-width="8" stroke="url(&quot;#SvgjsLinearGradient1077&quot;)" stroke-linecap="round" class="Down"></path><path d="M1311 63L1310 240" stroke-width="6" stroke="url(&quot;#SvgjsLinearGradient1077&quot;)" stroke-linecap="round" class="Down"></path><path d="M1178 294L1177 -47" stroke-width="10" stroke="url(&quot;#SvgjsLinearGradient1076&quot;)" stroke-linecap="round" class="Up"></path><path d="M53 21L52 315" stroke-width="8" stroke="url(&quot;#SvgjsLinearGradient1077&quot;)" stroke-linecap="round" class="Down"></path><path d="M782 376L781 614" stroke-width="8" stroke="url(&quot;#SvgjsLinearGradient1077&quot;)" stroke-linecap="round" class="Down"></path><path d="M707 416L706 817" stroke-width="10" stroke="url(&quot;#SvgjsLinearGradient1076&quot;)" stroke-linecap="round" class="Up"></path><path d="M1013 70L1012 464" stroke-width="8" stroke="url(&quot;#SvgjsLinearGradient1076&quot;)" stroke-linecap="round" class="Up"></path><path d="M876 460L875 721" stroke-width="8" stroke="url(&quot;#SvgjsLinearGradient1077&quot;)" stroke-linecap="round" class="Down"></path><path d="M818 403L817 709" stroke-width="6" stroke="url(&quot;#SvgjsLinearGradient1076&quot;)" stroke-linecap="round" class="Up"></path><path d="M736 65L735 -354" stroke-width="10" stroke="url(&quot;#SvgjsLinearGradient1077&quot;)" stroke-linecap="round" class="Down"></path><path d="M746 44L745 271" stroke-width="10" stroke="url(&quot;#SvgjsLinearGradient1076&quot;)" stroke-linecap="round" class="Up"></path><path d="M493 337L492 675" stroke-width="6" stroke="url(&quot;#SvgjsLinearGradient1076&quot;)" stroke-linecap="round" class="Up"></path><path d="M797 96L796 334" stroke-width="6" stroke="url(&quot;#SvgjsLinearGradient1076&quot;)" stroke-linecap="round" class="Up"></path></g><defs><mask id="SvgjsMask1075"><rect width="1440" height="560" fill="#ffffff"></rect></mask><linearGradient x1="0%" y1="100%" x2="0%" y2="0%" id="SvgjsLinearGradient1076"><stop stop-color="rgba(255, 255, 255, 0)" offset="0"></stop><stop stop-color="rgba(255, 255, 255, 0.37)" offset="1"></stop></linearGradient><linearGradient x1="0%" y1="0%" x2="0%" y2="100%" id="SvgjsLinearGradient1077"><stop stop-color="rgba(255, 255, 255, 0)" offset="0"></stop><stop stop-color="rgba(255, 255, 255, 0.37)" offset="1"></stop></linearGradient></defs></svg>